<svg preserveAspectRatio="none" width="100%" height="100%" overflow="visible" style="display: block;" viewBox="0 0 29.5717 29.2101" fill="none" xmlns="http://www.w3.org/2000/svg">
<g id="Group 50">
<path id="Vector" d="M27.5081 7.18728C24.9301 2.89028 20.1929 0 14.7798 0C9.36674 0 4.62954 2.89028 2.05757 7.18728C1.90804 7.43552 1.76449 7.68968 1.6329 7.94974C0.59215 9.94752 0 12.2113 0 14.6051C0 16.9989 0.59215 19.2626 1.6329 21.2604C1.76449 21.5205 1.90804 21.7746 2.05757 22.0229C4.63552 26.3199 9.37272 29.2101 14.7858 29.2101C20.1989 29.2101 24.9361 26.3199 27.514 22.0229C27.6636 21.7746 27.8071 21.5205 27.9387 21.2604C28.9795 19.2626 29.5716 16.9989 29.5716 14.6051C29.5716 12.2113 28.9795 9.94752 27.9387 7.94974C27.8071 7.68968 27.6636 7.43552 27.514 7.18728H27.5081ZM26.6468 7.31731C25.3668 7.49463 24.0389 7.6483 22.6692 7.77243C21.7361 4.90579 20.2348 2.60657 18.4165 1.27078C21.8737 2.19283 24.7985 4.38566 26.6468 7.31731ZM22.9025 14.2091H15.1866V8.90135C17.5851 8.88953 19.8998 8.79496 22.1069 8.62355C22.5914 10.3199 22.8725 12.2113 22.9025 14.2091ZM22.1069 20.5925C19.8998 20.4211 17.5851 20.3206 15.1866 20.3147V15.007H22.9025C22.8666 17.0048 22.5854 18.8962 22.1069 20.5925ZM6.66318 15.0011H14.3791V20.3088C11.9806 20.3206 9.6658 20.4152 7.4587 20.5866C6.97421 18.8902 6.69309 16.9989 6.66318 15.0011ZM7.4587 8.62355C9.6658 8.79496 11.9806 8.89544 14.3791 8.90135V14.2091H6.66318C6.69907 12.2113 6.98019 10.3199 7.4587 8.62355ZM15.1806 0.809751C18.0456 1.04617 20.5219 3.82415 21.8557 7.83744C19.7144 8.00885 17.4714 8.10342 15.1806 8.11524V0.809751ZM14.3791 8.10933C12.0823 8.09751 9.84524 8.00294 7.70393 7.83153C9.03776 3.82415 11.514 1.04617 14.3791 0.809751V8.10933ZM14.3791 21.1008V28.4004C11.514 28.164 9.03776 25.386 7.70393 21.3727C9.84524 21.2013 12.0882 21.1067 14.3791 21.0949V21.1008ZM15.1806 21.1008C17.4774 21.1126 19.7144 21.2072 21.8557 21.3786C20.5219 25.3919 18.0456 28.164 15.1806 28.4063V21.1067V21.1008ZM11.1492 1.27078C9.33085 2.60066 7.82954 4.90579 6.89645 7.77243C5.52673 7.6483 4.1929 7.50054 2.91888 7.31731C4.76711 4.38566 7.69795 2.18692 11.1492 1.27078ZM2.47028 8.07387C3.8101 8.26891 5.20972 8.4285 6.66318 8.55853C6.1787 10.2903 5.89758 12.1995 5.86169 14.2091H0.813459C0.879253 11.9926 1.46542 9.91206 2.47028 8.07387ZM0.813459 15.0011H5.86169C5.89758 17.0107 6.1787 18.9257 6.66318 20.6516C5.20972 20.7816 3.8101 20.9412 2.47028 21.1363C1.4714 19.2981 0.879253 17.2116 0.813459 15.0011ZM2.91888 21.8987C4.19888 21.7214 5.52673 21.5677 6.89645 21.4436C7.82954 24.3103 9.33085 26.6095 11.1492 27.9453C7.69197 27.0232 4.76711 24.8304 2.91888 21.8987ZM18.4165 27.9453C20.2348 26.6154 21.7361 24.3103 22.6692 21.4436C24.0389 21.5677 25.3727 21.7155 26.6468 21.8987C24.7985 24.8304 21.8677 27.0232 18.4165 27.9453ZM27.0954 21.1422C25.7555 20.9471 24.3559 20.7875 22.9025 20.6575C23.3869 18.9257 23.6681 17.0166 23.7039 15.007H28.7522C28.6864 17.2235 28.1002 19.304 27.0954 21.1422ZM28.7522 14.2091H23.7039C23.6681 12.1995 23.3869 10.2844 22.9025 8.55853C24.3559 8.4285 25.7555 8.26891 27.0954 8.07387C28.0942 9.91206 28.6864 11.9985 28.7522 14.2091Z" fill="var(--fill-0, #E6233A)"/>
</g>
</svg>
