<svg preserveAspectRatio="none" width="100%" height="100%" overflow="visible" style="display: block;" viewBox="0 0 107 33.7417" fill="none" xmlns="http://www.w3.org/2000/svg">
<g id="Group 51">
<path id="Vector" d="M34.427 16.8715C34.427 21.5565 32.7357 25.5443 29.3531 28.821C25.9705 32.0977 21.917 33.729 17.2065 33.729C12.496 33.729 8.44251 32.0977 5.07389 28.821C1.70528 25.5443 0 21.5704 0 16.8715C0 12.1726 1.6913 8.19871 5.08787 4.89413C8.45649 1.63138 12.496 0 17.2065 0C21.917 0 25.9565 1.63138 29.3252 4.89413C32.7217 8.19871 34.427 12.1865 34.427 16.8715ZM33.2669 16.997V16.3835C30.2057 16.0488 28.6682 15.8955 28.6542 15.8955C28.5843 15.8955 27.8016 15.9791 26.32 16.1185L27.2005 17.8196L24.9362 18.6284L23.6362 15.7142L23.2309 15.9652C23.9577 17.3037 24.3631 18.6005 24.433 19.8554C23.6782 20.7477 22.9234 21.668 22.1686 22.5883C22.1686 24.5822 21.9729 26.3948 21.5256 28.0122L19.2612 29.9504L17.6258 28.8907C17.4861 26.6179 17.1087 24.3312 16.4937 22.0166L15.1099 20.0785L12.0208 19.3534L11.2241 17.4989L11.7552 14.8079C12.6498 14.5429 13.9357 14.0689 15.5991 13.3717C15.9905 13.6366 16.4797 13.8179 17.0807 13.9155C17.5979 13.9992 18.1151 14.0689 18.6462 14.1386C18.6462 14.1386 19.401 14.3477 20.8826 14.7521C21.7632 14.9891 22.518 15.1286 23.175 15.1565L23.9018 13.3856H23.0212L22.5041 10.6667L20.2956 10.583L20.4354 11.4615L21.5536 12.8697L20.673 12.4235L20.8826 13.0789L19.3171 13.4554L19.9182 13.0092L19.4709 11.7543L18.4226 11.0153L17.6119 11.7543L16.4238 11.5451L15.6969 12.8697L14.3551 12.2005L15.4034 10.9456L16.9689 10.4994L17.6258 9.55121L19.9322 8.50546L20.4493 7.91984L20.9665 5.7865L19.5687 6.49761L20.2117 6.8462L19.2193 7.76646L18.8699 6.77648L18.3806 7.55731L16.899 6.28846L20.0859 3.52767H22.7137L22.9933 1.9939C21.2181 1.33856 19.387 1.00392 17.4861 1.00392C15.3754 1.00392 13.6282 1.29673 12.2444 1.86841C12.5659 2.11939 12.7197 2.38432 12.7197 2.67713C12.7197 2.81656 12.5799 2.92811 12.3004 2.99783C12.1047 3.03966 11.895 3.06754 11.6993 3.10937C11.1402 3.29064 10.5811 3.59739 10.008 4.04358C9.43493 4.48977 8.90378 5.28454 8.42854 6.41395C8.03716 7.30633 7.61783 7.75252 7.17055 7.75252C6.89099 7.75252 6.63939 7.51548 6.41575 7.04141C6.19211 6.56733 6.08029 6.33029 6.06631 6.33029C5.633 6.33029 5.24163 6.44184 4.89218 6.66493C3.9417 7.30633 3.03315 8.68672 2.19449 10.834C1.32788 13.0371 0.894571 15.1286 0.894571 17.1225C0.894571 21.5565 2.47405 25.2933 5.61902 28.3329C8.77798 31.3726 12.5799 32.9064 17.0248 32.9064C21.4697 32.9064 25.2996 31.3587 28.5005 28.2632C31.7014 25.1678 33.2948 21.4031 33.2948 16.983L33.2669 16.997ZM14.369 5.89805L13.782 6.34424L12.8035 6.48367L13.1809 5.22877H14.1594L14.369 5.89805ZM15.7808 8.39391L15.2636 8.97954L15.04 8.3242L15.4174 7.72463L15.7948 8.39391H15.7808ZM17.8355 8.3242L17.0388 9.13291L16.298 9.0632L16.9689 8.25448L16.5216 8.1011L16.0464 7.23661L16.3119 6.56733L17.8355 8.33814V8.3242ZM18.7441 12.8279L18.6742 13.553L18.0032 12.8279H18.7441Z" fill="var(--fill-0, #E6233A)"/>
<path id="Vector_2" d="M70.6982 16.8715C70.6982 21.5565 69.0069 25.5443 65.6243 28.821C62.2417 32.0977 58.1882 33.729 53.4777 33.729C48.7672 33.729 44.7137 32.0977 41.3451 28.821C37.9765 25.5443 36.2852 21.5704 36.2852 16.8715C36.2852 12.1726 37.9765 8.18476 41.373 4.89413C44.7416 1.63138 48.7812 0 53.4917 0C58.2021 0 62.2417 1.63138 65.6103 4.89413C69.0069 8.19871 70.7122 12.1865 70.7122 16.8715H70.6982ZM69.7617 16.8715C69.7617 12.5212 68.0844 8.72855 64.7157 5.49369L64.1427 6.46973L61.417 5.74467L59.3204 6.33029L58.314 9.04925L56.0775 9.63487L55.77 11.9355L54.8475 11.5172L54.1207 13.4554L54.7776 16.9691L53.9809 18.475L52.4573 18.5447L52.8347 20.5525C51.6606 19.8972 50.2908 18.9491 48.7253 17.736L46.0695 17.485C45.776 17.3316 45.3008 17.1225 44.6298 16.8436C43.8471 17.8475 42.8407 18.963 41.5827 20.19L41.5128 21.4867L40.9257 22.6719L40.2688 22.6162L38.0603 18.1822L38.1302 16.8854L37.2077 16.8297V16.8715C37.2077 21.3055 38.8151 25.0702 42.03 28.1796C45.2029 31.2611 49.0188 32.7948 53.4777 32.7948C57.9366 32.7948 61.7525 31.2471 64.9534 28.1517C68.1542 25.0563 69.7477 21.2915 69.7477 16.8715H69.7617ZM44.8255 22.9369C44.1127 23.5922 43.3858 24.122 42.659 24.5125L41.7924 24.122L43.3159 22.5464L44.8255 22.9369ZM52.5831 21.0266L52.052 21.4867L51.395 21.0963L52.5831 21.0266ZM61.9901 25.5861C61.8084 26.6876 61.0256 27.9425 59.6139 29.309L58.7473 29.3787L55.784 28.1656L52.9885 28.3051C52.9885 27.6637 52.7369 26.8968 52.1917 26.0044C52.3735 25.1817 52.8487 24.3172 53.6314 23.4249C55.3088 23.6061 56.7205 23.3691 57.8807 22.6998L59.1247 23.7037L59.8375 21.8353C60.2429 23.1042 60.9557 24.3591 62.0041 25.5861H61.9901ZM55.3088 21.0545L54.7916 21.7796L53.8691 20.5386L55.3088 21.0545ZM57.9505 11.8519C57.6011 12.6327 57.0001 13.6785 56.1055 15.0031L55.6862 15.0867C56.3012 13.3996 56.8882 12.2283 57.4613 11.573L57.9505 11.8519ZM57.4473 21.6262L56.0636 20.8453L57.3775 20.441L57.4473 21.6262ZM59.2784 10.5133L58.3978 11.0571H57.671L58.3978 9.84402L58.8871 9.92768L59.2784 10.5133ZM60.4246 30.1177L60.0332 30.6057L58.8591 30.536L59.7397 29.8109L60.4106 30.1177H60.4246ZM60.8299 19.2976L60.3687 20.4689L59.2505 20.3573L60.8299 19.2976ZM61.7385 22.0863L61.0536 22.3512L61.5288 21.3473L61.7385 22.0863ZM66.9102 24.5125L66.3651 25.7534C65.5404 26.2833 64.6878 26.841 63.8351 27.4266L63.2621 28.7234L62.7449 29.0998L62.3395 28.4863C62.7449 27.6079 63.1502 26.9665 63.5556 26.5761L64.7577 26.0462C65.0512 25.2933 65.4006 24.6798 65.792 24.1918L66.3092 24.9726L66.9102 24.5264V24.5125Z" fill="var(--fill-0, #E6233A)"/>
<path id="Vector_3" d="M106.986 16.7587C106.986 21.4437 105.295 25.4454 101.926 28.7639C98.5577 32.0825 94.5042 33.7417 89.7937 33.7417C85.0833 33.7417 81.0437 32.1104 77.6751 28.8476C74.2785 25.557 72.5732 21.5692 72.5732 16.8842C72.5732 12.1992 74.2785 8.19746 77.6751 4.90682C81.0437 1.64407 85.0833 0.0126953 89.7937 0.0126953C94.5042 0.0126953 98.5438 1.61618 101.898 4.8371C105.295 8.09985 107 12.0737 107 16.7726L106.986 16.7587ZM106.092 16.6471C106.092 12.2689 104.47 8.5321 101.241 5.40878C98.0266 2.3273 94.2247 0.779581 89.8357 0.779581L88.0605 4.40486L89.9894 4.79527L91.499 3.28939L94.1548 3.47065L94.6859 4.87893L93.0925 6.46848V7.41663L94.0849 7.61184L94.5461 6.87284L96.2933 5.77131L96.2374 6.51031L96.8944 7.63972L96.1116 8.44844L96.6009 8.92251L95.4267 8.99223L95.902 9.94038L93.372 11.1395L93.7634 12.5757H92.9667L92.6172 11.1674L90.7582 11.1256L90.4227 11.6694L89.654 11.3208L88.4099 12.5617L89.4024 13.7469L89.3604 15.0576L90.4088 15.8384L96.503 16.5217L98.4319 17.8881L98.2083 21.2624L94.015 25.4454C93.7494 25.7103 93.4838 26.4772 93.2183 27.7042C92.9667 28.8755 92.8828 29.6981 92.9527 30.2001L92.3097 30.9252C91.8205 29.9491 91.1636 28.4432 90.3808 26.4215C90.1991 25.7243 90.0314 24.8458 89.8916 23.7722C89.7798 22.8938 89.6819 22.0014 89.5701 21.109L86.9143 18.7805L89.2766 16.0057L88.2981 14.6114C86.8025 14.3047 85.8241 14.0258 85.3768 13.7888C84.9295 13.5517 84.1607 12.8685 83.0565 11.767L83.979 13.5517L83.364 13.8166L81.9243 11.1256L82.2039 8.61576L81.7566 6.84495L80.3728 5.50639L79.3664 5.25541L78.4858 5.86891L77.5074 6.11989C74.8237 9.20138 73.4818 12.7569 73.4818 16.7587C73.4818 21.2345 75.0892 25.0411 78.3041 28.1644C81.477 31.2459 85.3209 32.7936 89.8217 32.7936C94.3225 32.7936 98.1524 31.218 101.325 28.0807C104.498 24.9435 106.078 21.123 106.078 16.6471H106.092Z" fill="var(--fill-0, #E6233A)"/>
</g>
</svg>
